<svg xmlns="http://www.w3.org/2000/svg" version="1.1" width="996px" height="996px" viewBox="0 0 996 996" preserveAspectRatio="xMidYMid meet" shape-rendering="geometricPrecision" text-rendering="geometricPrecision" image-rendering="optimizeQuality" fill-rule="evenodd" clip-rule="evenodd">
<g><path style="opacity:1" fill="#fefcfc" d="M 644.5,82.5 C 636.926,84.7023 629.26,85.0357 621.5,83.5C 618.467,81.984 615.8,79.984 613.5,77.5C 613.389,76.8826 613.056,76.3826 612.5,76C 603.581,75.4815 595.248,77.3148 587.5,81.5C 582.763,82.3675 578.096,83.5342 573.5,85C 568.806,85.5639 564.14,85.3973 559.5,84.5C 557.5,83.8333 555.5,83.1667 553.5,82.5C 553.167,81.8333 552.833,81.1667 552.5,80.5C 551.4,79.4415 550.066,78.6082 548.5,78C 546.398,76.2672 546.065,74.2672 547.5,72C 549.653,71.9005 551.319,71.0672 552.5,69.5C 554.017,69.4894 555.184,68.8228 556,67.5C 557.356,64.6711 558.856,62.0045 560.5,59.5C 561.929,56.6916 562.595,53.6916 562.5,50.5C 562.662,48.4727 562.495,46.4727 562,44.5C 561.617,43.944 561.117,43.6107 560.5,43.5C 560.5,42.5 560.5,41.5 560.5,40.5C 550.618,44.0032 540.618,44.3366 530.5,41.5C 523.978,36.7939 521.478,30.4605 523,22.5C 529.252,7.17713 540.419,2.01047 556.5,7C 561.508,9.17772 565.841,12.3444 569.5,16.5C 570.143,21.6984 570.81,26.8651 571.5,32C 585.79,36.5416 599.79,41.8749 613.5,48C 615.167,48.6667 616.833,48.6667 618.5,48C 625.132,41.0749 632.799,39.7415 641.5,44C 647.329,46.992 652.496,50.8253 657,55.5C 658.356,62.6121 657.356,69.2788 654,75.5C 650.855,77.9765 647.688,80.3098 644.5,82.5 Z"/></g>
<g><path style="opacity:0.957" fill="#c52323" d="M 558.5,46.5 C 560.194,47.5274 561.527,48.8608 562.5,50.5C 562.595,53.6916 561.929,56.6916 560.5,59.5C 557.588,61.8023 555.255,64.6356 553.5,68C 547.169,67.0024 543.836,69.669 543.5,76C 543.748,77.7491 544.748,78.5824 546.5,78.5C 548.102,80.0739 550.102,80.7406 552.5,80.5C 552.833,81.1667 553.167,81.8333 553.5,82.5C 558.517,89.4988 565.184,91.6654 573.5,89C 574.252,88.3292 574.586,87.4959 574.5,86.5C 582.664,86.5521 590.331,84.7188 597.5,81C 601.571,80.4757 605.571,79.6424 609.5,78.5C 614.059,80.6096 618.392,82.9429 622.5,85.5C 628.842,85.6662 635.175,85.4995 641.5,85C 642.942,84.6232 643.942,83.7899 644.5,82.5C 651.281,80.8022 655.947,76.8022 658.5,70.5C 658.281,71.675 658.614,72.675 659.5,73.5C 668.99,78.0782 678.324,82.9115 687.5,88C 691.458,90.234 694.958,93.0673 698,96.5C 700.387,101.729 698.887,105.395 693.5,107.5C 689.596,105.961 685.596,104.127 681.5,102C 679.167,101.833 676.833,101.667 674.5,101.5C 668.081,102.138 661.747,103.305 655.5,105C 654.058,105.377 653.058,106.21 652.5,107.5C 646.834,108.39 641.5,110.057 636.5,112.5C 628.303,114.008 620.637,116.675 613.5,120.5C 602.029,122.66 591.029,125.993 580.5,130.5C 573.37,132.363 566.37,134.363 559.5,136.5C 548.804,139.067 538.47,142.4 528.5,146.5C 515.883,150.039 503.216,153.373 490.5,156.5C 490.771,154.62 490.104,153.287 488.5,152.5C 487.743,148.317 486.41,144.317 484.5,140.5C 484.586,139.504 484.252,138.671 483.5,138C 478.907,136.749 474.241,135.915 469.5,135.5C 465.018,135.241 461.018,133.908 457.5,131.5C 448.851,130.826 440.184,129.492 431.5,127.5C 429.955,127.511 428.622,127.844 427.5,128.5C 426.325,128.281 425.325,128.614 424.5,129.5C 422.818,132.816 420.485,135.483 417.5,137.5C 416.833,137.5 416.167,137.5 415.5,137.5C 413.629,137.859 412.129,138.859 411,140.5C 410.184,145.684 410.35,150.684 411.5,155.5C 411.969,158.643 413.636,160.977 416.5,162.5C 417.816,164.822 419.149,167.156 420.5,169.5C 418.073,173.543 416.406,177.877 415.5,182.5C 415.5,183.5 415.5,184.5 415.5,185.5C 403.125,189.067 391.125,193.4 379.5,198.5C 377.473,198.338 375.473,198.505 373.5,199C 364.725,202.752 355.725,205.752 346.5,208C 339.865,211.157 333.199,213.991 326.5,216.5C 322.173,217.551 317.84,218.718 313.5,220C 312.429,220.852 311.429,221.685 310.5,222.5C 303.262,223.639 296.262,225.472 289.5,228C 285.618,229.638 281.952,231.638 278.5,234C 276.866,234.494 275.199,234.66 273.5,234.5C 273.5,235.5 273.5,236.5 273.5,237.5C 270.318,237.584 267.985,238.917 266.5,241.5C 263.991,242.921 261.657,244.588 259.5,246.5C 254.709,247.624 252.042,250.624 251.5,255.5C 225.057,276.052 195.391,290.218 162.5,298C 147.856,300.786 135.689,296.619 126,285.5C 121.807,277.666 120.474,269.333 122,260.5C 125.742,245.35 132.409,231.683 142,219.5C 154.463,203.37 168.63,188.87 184.5,176C 201.683,166.741 219.349,158.575 237.5,151.5C 239.556,152.216 241.723,152.883 244,153.5C 245.978,158.299 246.812,163.299 246.5,168.5C 245.306,169.272 244.306,170.272 243.5,171.5C 241.683,172.816 240.017,174.316 238.5,176C 239.741,177.731 240.741,179.564 241.5,181.5C 241.213,185.215 242.88,187.548 246.5,188.5C 246.884,191.05 248.384,192.383 251,192.5C 253.183,192.478 254.683,191.478 255.5,189.5C 260.167,188.167 264.833,186.833 269.5,185.5C 272.274,186.723 274.941,188.223 277.5,190C 278.793,190.49 280.127,190.657 281.5,190.5C 297.054,195.357 310.554,192.024 322,180.5C 322.791,179.255 323.291,177.922 323.5,176.5C 325.104,175.713 325.771,174.38 325.5,172.5C 326.647,168.354 326.814,164.02 326,159.5C 325.8,157.68 324.966,156.347 323.5,155.5C 323.167,155.5 322.833,155.5 322.5,155.5C 322.167,154.833 321.833,154.167 321.5,153.5C 320.925,151.589 319.925,149.922 318.5,148.5C 317.419,146.236 316.085,144.069 314.5,142C 313.207,141.51 311.873,141.343 310.5,141.5C 309.486,140.326 308.153,139.66 306.5,139.5C 306.167,138.833 305.833,138.167 305.5,137.5C 301.798,134.931 297.798,132.931 293.5,131.5C 381.159,100.946 469.493,72.6131 558.5,46.5 Z"/></g>
<g><path style="opacity:0.052" fill="#e59b9b" d="M 658.5,70.5 C 655.947,76.8022 651.281,80.8022 644.5,82.5C 647.688,80.3098 650.855,77.9765 654,75.5C 657.356,69.2788 658.356,62.6121 657,55.5C 652.496,50.8253 647.329,46.992 641.5,44C 632.799,39.7415 625.132,41.0749 618.5,48C 616.833,48.6667 615.167,48.6667 613.5,48C 599.79,41.8749 585.79,36.5416 571.5,32C 570.81,26.8651 570.143,21.6984 569.5,16.5C 565.841,12.3444 561.508,9.17772 556.5,7C 540.419,2.01047 529.252,7.17713 523,22.5C 521.478,30.4605 523.978,36.7939 530.5,41.5C 533.83,44.4818 537.83,45.8151 542.5,45.5C 547.759,45.0259 552.926,44.0259 558,42.5C 558.902,42.7432 559.735,43.0766 560.5,43.5C 561.117,43.6107 561.617,43.944 562,44.5C 562.495,46.4727 562.662,48.4727 562.5,50.5C 561.527,48.8608 560.194,47.5274 558.5,46.5C 558.631,45.6236 558.298,44.9569 557.5,44.5C 549.325,47.7507 540.992,48.2507 532.5,46C 518.671,38.4998 515.838,27.9998 524,14.5C 539.608,-1.44833 555.274,-1.44833 571,14.5C 573.045,18.9034 574.045,23.5701 574,28.5C 587.621,34.6523 601.454,40.3189 615.5,45.5C 620.551,41.8126 626.217,39.4792 632.5,38.5C 642.537,40.4337 651.037,45.1004 658,52.5C 661.048,58.558 661.215,64.558 658.5,70.5 Z"/></g>
<g><path style="opacity:0.992" fill="#f4d4d4" d="M 560.5,43.5 C 559.735,43.0766 558.902,42.7432 558,42.5C 552.926,44.0259 547.759,45.0259 542.5,45.5C 537.83,45.8151 533.83,44.4818 530.5,41.5C 540.618,44.3366 550.618,44.0032 560.5,40.5C 560.5,41.5 560.5,42.5 560.5,43.5 Z"/></g>
<g><path style="opacity:1" fill="#de8180" d="M 560.5,59.5 C 558.856,62.0045 557.356,64.6711 556,67.5C 555.184,68.8228 554.017,69.4894 552.5,69.5C 545.801,69.2737 543.801,72.2737 546.5,78.5C 544.748,78.5824 543.748,77.7491 543.5,76C 543.836,69.669 547.169,67.0024 553.5,68C 555.255,64.6356 557.588,61.8023 560.5,59.5 Z"/></g>
<g><path style="opacity:1" fill="#f1c9c9" d="M 552.5,69.5 C 551.319,71.0672 549.653,71.9005 547.5,72C 546.065,74.2672 546.398,76.2672 548.5,78C 550.066,78.6082 551.4,79.4415 552.5,80.5C 550.102,80.7406 548.102,80.0739 546.5,78.5C 543.801,72.2737 545.801,69.2737 552.5,69.5 Z"/></g>
<g><path style="opacity:1" fill="#ecb7b7" d="M 613.5,77.5 C 611.874,77.0617 610.207,76.7284 608.5,76.5C 601.432,77.9688 594.432,79.6355 587.5,81.5C 595.248,77.3148 603.581,75.4815 612.5,76C 613.056,76.3826 613.389,76.8826 613.5,77.5 Z"/></g>
<g><path style="opacity:1" fill="#cd4340" d="M 613.5,77.5 C 615.8,79.984 618.467,81.984 621.5,83.5C 621.833,84.1667 622.167,84.8333 622.5,85.5C 618.392,82.9429 614.059,80.6096 609.5,78.5C 605.571,79.6424 601.571,80.4757 597.5,81C 590.331,84.7188 582.664,86.5521 574.5,86.5C 579.041,85.4298 583.375,83.7631 587.5,81.5C 594.432,79.6355 601.432,77.9688 608.5,76.5C 610.207,76.7284 611.874,77.0617 613.5,77.5 Z"/></g>
<g><path style="opacity:1" fill="#e49796" d="M 644.5,82.5 C 643.942,83.7899 642.942,84.6232 641.5,85C 635.175,85.4995 628.842,85.6662 622.5,85.5C 622.167,84.8333 621.833,84.1667 621.5,83.5C 629.26,85.0357 636.926,84.7023 644.5,82.5 Z"/></g>
<g><path style="opacity:1" fill="#f2cdcc" d="M 587.5,81.5 C 583.375,83.7631 579.041,85.4298 574.5,86.5C 571.998,86.7495 569.498,87.0828 567,87.5C 564.044,87.432 561.544,86.432 559.5,84.5C 564.14,85.3973 568.806,85.5639 573.5,85C 578.096,83.5342 582.763,82.3675 587.5,81.5 Z"/></g>
<g><path style="opacity:1" fill="#cd433f" d="M 553.5,82.5 C 555.5,83.1667 557.5,83.8333 559.5,84.5C 561.544,86.432 564.044,87.432 567,87.5C 569.498,87.0828 571.998,86.7495 574.5,86.5C 574.586,87.4959 574.252,88.3292 573.5,89C 565.184,91.6654 558.517,89.4988 553.5,82.5 Z"/></g>
<g><path style="opacity:1" fill="#fefcfc" d="M 306.5,139.5 C 308.153,139.66 309.486,140.326 310.5,141.5C 310.833,142.5 311.5,143.167 312.5,143.5C 314.737,147.41 317.737,150.743 321.5,153.5C 321.833,154.167 322.167,154.833 322.5,155.5C 324.62,162.401 324.954,169.401 323.5,176.5C 312.657,190.023 298.657,194.689 281.5,190.5C 280.127,190.657 278.793,190.49 277.5,190C 274.941,188.223 272.274,186.723 269.5,185.5C 264.315,184.394 259.648,185.727 255.5,189.5C 252.222,191.107 249.222,190.773 246.5,188.5C 245.567,185.63 243.9,183.296 241.5,181.5C 240.741,179.564 239.741,177.731 238.5,176C 240.017,174.316 241.683,172.816 243.5,171.5C 245.17,171.249 246.67,170.582 248,169.5C 248.667,164.833 248.667,160.167 248,155.5C 247.292,154.619 246.458,153.953 245.5,153.5C 245.672,152.508 245.338,151.842 244.5,151.5C 243.32,149.307 242.32,146.974 241.5,144.5C 238.682,143.12 236.015,143.287 233.5,145C 217.152,148.163 206.152,141.997 200.5,126.5C 199.895,120.767 201.062,115.434 204,110.5C 207.038,107.631 209.871,104.631 212.5,101.5C 228.636,92.6575 242.47,95.3241 254,109.5C 255.106,115.974 255.939,122.474 256.5,129C 259.5,129.5 262.5,130 265.5,130.5C 268.259,128.906 271.259,127.573 274.5,126.5C 279.595,128.551 284.262,131.384 288.5,135C 291.5,135.333 294.5,135.667 297.5,136C 300.189,137.924 303.189,139.091 306.5,139.5 Z"/></g>
<g><path style="opacity:1" fill="#d04e4b" d="M 693.5,107.5 C 691.708,107.634 690.042,107.301 688.5,106.5C 685.659,106.44 682.993,105.774 680.5,104.5C 678.19,103.836 675.69,103.503 673,103.5C 669.195,103.304 665.695,103.97 662.5,105.5C 661.833,105.5 661.167,105.5 660.5,105.5C 657.673,105.584 655.006,106.25 652.5,107.5C 653.058,106.21 654.058,105.377 655.5,105C 661.747,103.305 668.081,102.138 674.5,101.5C 676.833,101.667 679.167,101.833 681.5,102C 685.596,104.127 689.596,105.961 693.5,107.5 Z"/></g>
<g><path style="opacity:1" fill="#eab1b1" d="M 680.5,104.5 C 674.464,104.36 668.464,104.693 662.5,105.5C 665.695,103.97 669.195,103.304 673,103.5C 675.69,103.503 678.19,103.836 680.5,104.5 Z"/></g>
<g><path style="opacity:0.961" fill="#fefefe" d="M 680.5,104.5 C 682.993,105.774 685.659,106.44 688.5,106.5C 687.391,107.29 686.058,107.79 684.5,108C 687.288,113.5 686.954,118.833 683.5,124C 681.725,125.439 679.725,126.439 677.5,127C 663.41,128.87 649.41,131.203 635.5,134C 627.446,140.387 619.112,146.387 610.5,152C 607.591,155.374 605.424,159.207 604,163.5C 598.976,169.375 592.809,173.375 585.5,175.5C 583.846,182.388 584.346,189.055 587,195.5C 610.237,226.967 632.237,259.301 653,292.5C 666.387,317.329 675.387,343.662 680,371.5C 686.361,406.086 672.527,426.919 638.5,434C 633.943,435.137 629.443,435.304 625,434.5C 622.83,445.693 621.496,457.027 621,468.5C 620.152,486.527 620.485,504.527 622,522.5C 623.747,537.836 628.414,552.17 636,565.5C 642.303,572.401 650.136,576.235 659.5,577C 664.928,585.69 669.428,594.857 673,604.5C 684.206,614.708 695.706,624.541 707.5,634C 720.395,647.564 733.895,660.397 748,672.5C 764.708,698.412 779.208,725.578 791.5,754C 791.043,754.414 790.709,754.914 790.5,755.5C 798.975,786.68 804.975,818.347 808.5,850.5C 808.693,852.688 807.859,854.355 806,855.5C 805.274,862.869 805.441,870.202 806.5,877.5C 801.5,877.5 796.5,877.5 791.5,877.5C 791.768,879.099 791.434,880.432 790.5,881.5C 786.761,879.898 782.761,878.898 778.5,878.5C 765.913,877.52 753.246,877.187 740.5,877.5C 740.5,879.167 740.5,880.833 740.5,882.5C 738.5,882.833 736.5,883.167 734.5,883.5C 734.5,882.833 734.5,882.167 734.5,881.5C 735.675,881.719 736.675,881.386 737.5,880.5C 743.566,868.701 750.399,857.368 758,846.5C 762.767,836.58 763.767,826.246 761,815.5C 756.708,802.922 751.875,790.589 746.5,778.5C 747.738,779.412 749.072,779.579 750.5,779C 738.286,758.076 726.453,736.909 715,715.5C 713.196,713.019 711.696,713.019 710.5,715.5C 708.442,713.073 706.609,710.407 705,707.5C 693.67,698.002 682.837,688.002 672.5,677.5C 673.043,677.44 673.376,677.107 673.5,676.5C 668.796,670.486 662.796,666.486 655.5,664.5C 655.082,663.778 654.416,663.278 653.5,663C 649.167,662.667 644.833,662.333 640.5,662C 639.956,661.283 639.289,660.783 638.5,660.5C 636.545,655.233 632.879,651.899 627.5,650.5C 614.879,643.282 601.212,640.782 586.5,643C 585.748,643.671 585.414,644.504 585.5,645.5C 586.156,667.182 580.489,687.182 568.5,705.5C 567.833,705.5 567.5,705.833 567.5,706.5C 563.141,709.206 558.808,711.873 554.5,714.5C 552.723,715.6 550.723,716.434 548.5,717C 538.473,717.729 528.473,717.563 518.5,716.5C 512.366,714.636 506.366,712.469 500.5,710C 497.31,707.636 494.31,705.136 491.5,702.5C 489.833,700.167 487.833,698.167 485.5,696.5C 482.911,692.397 480.078,688.397 477,684.5C 476.439,681.721 475.606,679.054 474.5,676.5C 472.395,666.601 471.562,656.601 472,646.5C 473.684,640.756 475.517,635.089 477.5,629.5C 477.5,628.833 477.5,628.167 477.5,627.5C 480.833,624.833 483.833,621.833 486.5,618.5C 487.139,617.903 487.472,617.07 487.5,616C 486.73,613.931 485.397,612.265 483.5,611C 476.228,606.726 469.228,602.059 462.5,597C 461.207,596.51 459.873,596.343 458.5,596.5C 456.583,594.149 454.916,594.149 453.5,596.5C 436.123,584.29 421.623,569.29 410,551.5C 408.714,548.595 407.714,545.595 407,542.5C 405.9,525.128 404.567,507.795 403,490.5C 396.522,495.986 389.022,499.153 380.5,500C 365.01,503.616 352.51,499.116 343,486.5C 328.363,462.868 319.03,437.201 315,409.5C 310.669,385.233 310.336,360.899 314,336.5C 317.009,313.787 320.009,291.12 323,268.5C 312.747,267.414 306.914,261.748 305.5,251.5C 304.5,251.167 303.5,250.833 302.5,250.5C 291.63,253.125 280.63,254.292 269.5,254C 266.572,252.62 263.738,251.12 261,249.5C 259.415,250.044 257.915,250.711 256.5,251.5C 256.721,249.336 257.721,247.67 259.5,246.5C 261.657,244.588 263.991,242.921 266.5,241.5C 270.155,239.623 273.822,237.957 277.5,236.5C 282.506,235.829 286.839,233.829 290.5,230.5C 303.308,227.57 315.308,222.904 326.5,216.5C 341.344,212.287 356.011,207.454 370.5,202C 373.827,201.39 377.161,200.89 380.5,200.5C 377.241,201.073 375.408,203.073 375,206.5C 371.744,252.701 377.577,297.701 392.5,341.5C 398.604,337.11 402.271,331.277 403.5,324C 402.501,318.187 402.335,312.354 403,306.5C 410.069,268.147 413.235,229.48 412.5,190.5C 413.925,189.078 414.925,187.411 415.5,185.5C 415.5,184.5 415.5,183.5 415.5,182.5C 417.646,178.281 419.646,173.948 421.5,169.5C 421.019,166.348 419.353,164.015 416.5,162.5C 415.969,160.456 414.802,158.789 413,157.5C 412.522,152.132 412.855,146.799 414,141.5C 415.376,140.295 416.542,138.962 417.5,137.5C 421.1,136.527 423.767,134.36 425.5,131C 431.528,130.359 437.528,130.526 443.5,131.5C 456.022,133.862 468.688,136.695 481.5,140C 483.22,144.542 485.553,148.709 488.5,152.5C 489.219,154.764 489.552,157.097 489.5,159.5C 491.5,159.5 493.5,159.5 495.5,159.5C 494.192,160.232 492.858,161.066 491.5,162C 495.378,173.617 493.878,184.45 487,194.5C 473.715,207.74 466.381,223.74 465,242.5C 464.006,259.487 463.506,276.487 463.5,293.5C 470.599,293.539 477.599,292.706 484.5,291C 495.838,287.999 507.172,284.999 518.5,282C 530.396,281.245 542.229,281.745 554,283.5C 554.772,283.355 555.439,283.022 556,282.5C 556.751,272.247 555.418,262.247 552,252.5C 545.3,227.104 535.3,203.104 522,180.5C 517.837,178.886 513.837,176.886 510,174.5C 507.195,169.227 504.695,163.894 502.5,158.5C 503.806,157.533 504.473,156.199 504.5,154.5C 512.723,152.201 520.723,149.534 528.5,146.5C 532.949,145.971 537.282,144.971 541.5,143.5C 551.079,140.697 560.745,138.197 570.5,136C 574.036,134.356 577.369,132.523 580.5,130.5C 591.702,127.541 602.702,124.208 613.5,120.5C 621.391,118.204 629.058,115.537 636.5,112.5C 637.833,112.5 639.167,112.5 640.5,112.5C 647.665,111.335 654.331,109.002 660.5,105.5C 661.167,105.5 661.833,105.5 662.5,105.5C 668.464,104.693 674.464,104.36 680.5,104.5 Z M 502.5,158.5 C 504.695,163.894 507.195,169.227 510,174.5C 513.837,176.886 517.837,178.886 522,180.5C 535.3,203.104 545.3,227.104 552,252.5C 555.418,262.247 556.751,272.247 556,282.5C 555.439,283.022 554.772,283.355 554,283.5C 542.229,281.745 530.396,281.245 518.5,282C 507.172,284.999 495.838,287.999 484.5,291C 477.599,292.706 470.599,293.539 463.5,293.5C 463.506,276.487 464.006,259.487 465,242.5C 466.381,223.74 473.715,207.74 487,194.5C 493.878,184.45 495.378,173.617 491.5,162C 492.858,161.066 494.192,160.232 495.5,159.5C 497.806,159.007 500.139,158.674 502.5,158.5 Z"/></g>
<g><path style="opacity:1" fill="#efc2c2" d="M 660.5,105.5 C 654.331,109.002 647.665,111.335 640.5,112.5C 644.5,110.833 648.5,109.167 652.5,107.5C 655.006,106.25 657.673,105.584 660.5,105.5 Z"/></g>
<g><path style="opacity:1" fill="#dc7b7a" d="M 652.5,107.5 C 648.5,109.167 644.5,110.833 640.5,112.5C 639.167,112.5 637.833,112.5 636.5,112.5C 641.5,110.057 646.834,108.39 652.5,107.5 Z"/></g>
<g><path style="opacity:1" fill="#de7f7e" d="M 636.5,112.5 C 629.058,115.537 621.391,118.204 613.5,120.5C 620.637,116.675 628.303,114.008 636.5,112.5 Z"/></g>
<g><path style="opacity:1" fill="#d35958" d="M 427.5,128.5 C 428.622,127.844 429.955,127.511 431.5,127.5C 440.184,129.492 448.851,130.826 457.5,131.5C 452.833,131.5 448.167,131.5 443.5,131.5C 438.494,129.441 433.16,128.441 427.5,128.5 Z"/></g>
<g><path style="opacity:1" fill="#e7a2a2" d="M 613.5,120.5 C 602.702,124.208 591.702,127.541 580.5,130.5C 591.029,125.993 602.029,122.66 613.5,120.5 Z"/></g>
<g><path style="opacity:0.2" fill="#d35755" d="M 290.5,131.5 C 291.5,131.5 292.5,131.5 293.5,131.5C 297.798,132.931 301.798,134.931 305.5,137.5C 300.298,135.88 295.298,133.88 290.5,131.5 Z"/></g>
<g><path style="opacity:1" fill="#e69d9c" d="M 427.5,128.5 C 433.16,128.441 438.494,129.441 443.5,131.5C 437.528,130.526 431.528,130.359 425.5,131C 423.767,134.36 421.1,136.527 417.5,137.5C 420.485,135.483 422.818,132.816 424.5,129.5C 425.325,128.614 426.325,128.281 427.5,128.5 Z"/></g>
<g><path style="opacity:1" fill="#f4d3d3" d="M 443.5,131.5 C 448.167,131.5 452.833,131.5 457.5,131.5C 461.018,133.908 465.018,135.241 469.5,135.5C 474.607,136.713 479.607,138.38 484.5,140.5C 486.41,144.317 487.743,148.317 488.5,152.5C 485.553,148.709 483.22,144.542 481.5,140C 468.688,136.695 456.022,133.862 443.5,131.5 Z"/></g>
<g><path style="opacity:1" fill="#dc7977" d="M 469.5,135.5 C 474.241,135.915 478.907,136.749 483.5,138C 484.252,138.671 484.586,139.504 484.5,140.5C 479.607,138.38 474.607,136.713 469.5,135.5 Z"/></g>
<g><path style="opacity:1" fill="#f1c7c7" d="M 580.5,130.5 C 577.369,132.523 574.036,134.356 570.5,136C 560.745,138.197 551.079,140.697 541.5,143.5C 547.5,141.167 553.5,138.833 559.5,136.5C 566.37,134.363 573.37,132.363 580.5,130.5 Z"/></g>
<g><path style="opacity:1" fill="#e18988" d="M 559.5,136.5 C 553.5,138.833 547.5,141.167 541.5,143.5C 537.282,144.971 532.949,145.971 528.5,146.5C 538.47,142.4 548.804,139.067 559.5,136.5 Z"/></g>
<g><path style="opacity:1" fill="#d5605e" d="M 415.5,137.5 C 414.542,138.962 413.376,140.295 412,141.5C 411.501,146.155 411.334,150.821 411.5,155.5C 410.35,150.684 410.184,145.684 411,140.5C 412.129,138.859 413.629,137.859 415.5,137.5 Z"/></g>
<g><path style="opacity:1" fill="#d55f5d" d="M 310.5,141.5 C 311.873,141.343 313.207,141.51 314.5,142C 316.085,144.069 317.419,146.236 318.5,148.5C 316.5,146.833 314.5,145.167 312.5,143.5C 311.5,143.167 310.833,142.5 310.5,141.5 Z"/></g>
<g><path style="opacity:0.047" fill="#e49b9a" d="M 290.5,131.5 C 295.298,133.88 300.298,135.88 305.5,137.5C 305.833,138.167 306.167,138.833 306.5,139.5C 303.189,139.091 300.189,137.924 297.5,136C 294.5,135.667 291.5,135.333 288.5,135C 284.262,131.384 279.595,128.551 274.5,126.5C 271.259,127.573 268.259,128.906 265.5,130.5C 262.5,130 259.5,129.5 256.5,129C 255.939,122.474 255.106,115.974 254,109.5C 242.47,95.3241 228.636,92.6575 212.5,101.5C 202.241,107.013 198.241,115.346 200.5,126.5C 206.152,141.997 217.152,148.163 233.5,145C 236.015,143.287 238.682,143.12 241.5,144.5C 242.32,146.974 243.32,149.307 244.5,151.5C 243.292,150.766 241.959,150.433 240.5,150.5C 240.923,147.757 239.756,146.424 237,146.5C 223.162,150.577 211.495,147.243 202,136.5C 193.004,117.65 198.171,104.15 217.5,96C 235.509,89.7759 249.009,94.9426 258,111.5C 258.195,116.418 258.695,121.251 259.5,126C 260.873,126.875 262.373,127.375 264,127.5C 267.394,125.952 270.894,124.619 274.5,123.5C 280.129,125.648 285.462,128.315 290.5,131.5 Z"/></g>
<g><path style="opacity:0.984" fill="#f3d1d1" d="M 212.5,101.5 C 209.871,104.631 207.038,107.631 204,110.5C 201.062,115.434 199.895,120.767 200.5,126.5C 198.241,115.346 202.241,107.013 212.5,101.5 Z"/></g>
<g><path style="opacity:1" fill="#f0c5c5" d="M 312.5,143.5 C 314.5,145.167 316.5,146.833 318.5,148.5C 319.925,149.922 320.925,151.589 321.5,153.5C 317.737,150.743 314.737,147.41 312.5,143.5 Z"/></g>
<g><path style="opacity:1" fill="#eaabaa" d="M 415.5,137.5 C 416.167,137.5 416.833,137.5 417.5,137.5C 416.542,138.962 415.376,140.295 414,141.5C 412.855,146.799 412.522,152.132 413,157.5C 414.802,158.789 415.969,160.456 416.5,162.5C 413.636,160.977 411.969,158.643 411.5,155.5C 411.334,150.821 411.501,146.155 412,141.5C 413.376,140.295 414.542,138.962 415.5,137.5 Z"/></g>
<g><path style="opacity:0.559" fill="#df8483" d="M 528.5,146.5 C 520.723,149.534 512.723,152.201 504.5,154.5C 504.473,156.199 503.806,157.533 502.5,158.5C 500.139,158.674 497.806,159.007 495.5,159.5C 493.5,159.5 491.5,159.5 489.5,159.5C 489.552,157.097 489.219,154.764 488.5,152.5C 490.104,153.287 490.771,154.62 490.5,156.5C 503.216,153.373 515.883,150.039 528.5,146.5 Z"/></g>
<g><path style="opacity:1" fill="#cf4947" d="M 240.5,150.5 C 241.959,150.433 243.292,150.766 244.5,151.5C 245.338,151.842 245.672,152.508 245.5,153.5C 247.662,158.434 247.995,163.434 246.5,168.5C 246.812,163.299 245.978,158.299 244,153.5C 241.723,152.883 239.556,152.216 237.5,151.5C 238.609,151.443 239.609,151.11 240.5,150.5 Z"/></g>
<g><path style="opacity:1" fill="#dd7d7d" d="M 245.5,153.5 C 246.458,153.953 247.292,154.619 248,155.5C 248.667,160.167 248.667,164.833 248,169.5C 246.67,170.582 245.17,171.249 243.5,171.5C 244.306,170.272 245.306,169.272 246.5,168.5C 247.995,163.434 247.662,158.434 245.5,153.5 Z"/></g>
<g><path style="opacity:1" fill="#d86867" d="M 416.5,162.5 C 419.353,164.015 421.019,166.348 421.5,169.5C 419.646,173.948 417.646,178.281 415.5,182.5C 416.406,177.877 418.073,173.543 420.5,169.5C 419.149,167.156 417.816,164.822 416.5,162.5 Z"/></g>
<g><path style="opacity:1" fill="#ecb7b6" d="M 322.5,155.5 C 322.833,155.5 323.167,155.5 323.5,155.5C 325.21,161.011 325.877,166.677 325.5,172.5C 325.771,174.38 325.104,175.713 323.5,176.5C 324.954,169.401 324.62,162.401 322.5,155.5 Z"/></g>
<g><path style="opacity:1" fill="#d96d6d" d="M 323.5,155.5 C 324.966,156.347 325.8,157.68 326,159.5C 326.814,164.02 326.647,168.354 325.5,172.5C 325.877,166.677 325.21,161.011 323.5,155.5 Z"/></g>
<g><path style="opacity:1" fill="#d6605c" d="M 241.5,181.5 C 243.9,183.296 245.567,185.63 246.5,188.5C 242.88,187.548 241.213,185.215 241.5,181.5 Z"/></g>
<g><path style="opacity:1" fill="#d76462" d="M 269.5,185.5 C 264.833,186.833 260.167,188.167 255.5,189.5C 259.648,185.727 264.315,184.394 269.5,185.5 Z"/></g>
<g><path style="opacity:1" fill="#dd7b78" d="M 246.5,188.5 C 249.222,190.773 252.222,191.107 255.5,189.5C 254.683,191.478 253.183,192.478 251,192.5C 248.384,192.383 246.884,191.05 246.5,188.5 Z"/></g>
<g><path style="opacity:1" fill="#e28f8e" d="M 323.5,176.5 C 323.291,177.922 322.791,179.255 322,180.5C 310.554,192.024 297.054,195.357 281.5,190.5C 298.657,194.689 312.657,190.023 323.5,176.5 Z"/></g>
<g><path style="opacity:0.132" fill="#d76867" d="M 415.5,185.5 C 414.925,187.411 413.925,189.078 412.5,190.5C 403.031,194.101 393.364,197.101 383.5,199.5C 382.167,199.167 380.833,198.833 379.5,198.5C 391.125,193.4 403.125,189.067 415.5,185.5 Z"/></g>
<g><path style="opacity:1" fill="#df8382" d="M 379.5,198.5 C 380.833,198.833 382.167,199.167 383.5,199.5C 382.791,200.404 381.791,200.737 380.5,200.5C 377.161,200.89 373.827,201.39 370.5,202C 356.011,207.454 341.344,212.287 326.5,216.5C 333.199,213.991 339.865,211.157 346.5,208C 355.725,205.752 364.725,202.752 373.5,199C 375.473,198.505 377.473,198.338 379.5,198.5 Z"/></g>
<g><path style="opacity:1" fill="#f2caca" d="M 326.5,216.5 C 315.308,222.904 303.308,227.57 290.5,230.5C 296.96,227.387 303.627,224.721 310.5,222.5C 311.429,221.685 312.429,220.852 313.5,220C 317.84,218.718 322.173,217.551 326.5,216.5 Z"/></g>
<g><path style="opacity:1" fill="#d25350" d="M 310.5,222.5 C 303.627,224.721 296.96,227.387 290.5,230.5C 285.738,231.716 281.405,233.716 277.5,236.5C 273.822,237.957 270.155,239.623 266.5,241.5C 267.985,238.917 270.318,237.584 273.5,237.5C 273.5,236.5 273.5,235.5 273.5,234.5C 275.199,234.66 276.866,234.494 278.5,234C 281.952,231.638 285.618,229.638 289.5,228C 296.262,225.472 303.262,223.639 310.5,222.5 Z"/></g>
<g><path style="opacity:0.953" fill="#efbebe" d="M 290.5,230.5 C 286.839,233.829 282.506,235.829 277.5,236.5C 281.405,233.716 285.738,231.716 290.5,230.5 Z"/></g>
<g><path style="opacity:0.196" fill="#cf4a47" d="M 259.5,246.5 C 257.721,247.67 256.721,249.336 256.5,251.5C 255.415,253.587 253.749,254.92 251.5,255.5C 252.042,250.624 254.709,247.624 259.5,246.5 Z"/></g>
<g><path style="opacity:0.282" fill="#e39494" d="M 458.5,596.5 C 456.833,596.5 455.167,596.5 453.5,596.5C 454.916,594.149 456.583,594.149 458.5,596.5 Z"/></g>
<g><path style="opacity:0.937" fill="#c52423" d="M 453.5,596.5 C 455.167,596.5 456.833,596.5 458.5,596.5C 467.087,603.138 476.087,609.305 485.5,615C 486.337,616.011 486.67,617.178 486.5,618.5C 482.5,620.5 479.5,623.5 477.5,627.5C 477.5,628.167 477.5,628.833 477.5,629.5C 475.591,631.649 473.924,633.982 472.5,636.5C 470.827,637.343 469.66,638.676 469,640.5C 468.179,647.346 468.346,654.013 469.5,660.5C 470.809,665.074 471.809,669.74 472.5,674.5C 473.649,678.811 474.816,683.144 476,687.5C 478.707,691.042 481.874,694.042 485.5,696.5C 486.5,699.5 488.5,701.5 491.5,702.5C 494.31,705.136 497.31,707.636 500.5,710C 506.366,712.469 512.366,714.636 518.5,716.5C 519.263,717.268 520.263,717.768 521.5,718C 530.833,718.667 540.167,718.667 549.5,718C 552.281,717.478 554.615,716.311 556.5,714.5C 560.705,712.636 564.372,709.97 567.5,706.5C 567.5,705.833 567.833,705.5 568.5,705.5C 572.56,701.708 575.893,697.374 578.5,692.5C 580.381,688.728 582.547,685.061 585,681.5C 586.271,676.246 586.771,670.913 586.5,665.5C 586.189,658.91 586.522,652.41 587.5,646C 597.958,645.28 608.291,646.113 618.5,648.5C 621.426,649.461 624.426,650.127 627.5,650.5C 631.141,653.805 634.808,657.138 638.5,660.5C 639.534,664.534 642.2,666.201 646.5,665.5C 645.571,666.315 644.571,667.148 643.5,668C 652.504,715.956 633.504,745.956 586.5,758C 542.576,766.346 501.242,759.346 462.5,737C 450.811,729.155 439.478,720.822 428.5,712C 429.167,711.333 429.833,710.667 430.5,710C 416.906,692.883 410.739,673.383 412,651.5C 415.955,636.878 423.289,624.211 434,613.5C 440.397,607.595 446.897,601.929 453.5,596.5 Z"/></g>
<g><path style="opacity:1" fill="#eebab9" d="M 458.5,596.5 C 459.873,596.343 461.207,596.51 462.5,597C 469.228,602.059 476.228,606.726 483.5,611C 485.397,612.265 486.73,613.931 487.5,616C 487.472,617.07 487.139,617.903 486.5,618.5C 486.67,617.178 486.337,616.011 485.5,615C 476.087,609.305 467.087,603.138 458.5,596.5 Z"/></g>
<g><path style="opacity:1" fill="#e28e8d" d="M 486.5,618.5 C 483.833,621.833 480.833,624.833 477.5,627.5C 479.5,623.5 482.5,620.5 486.5,618.5 Z"/></g>
<g><path style="opacity:1" fill="#d04c4a" d="M 472.5,636.5 C 469.914,644.267 468.914,652.267 469.5,660.5C 468.346,654.013 468.179,647.346 469,640.5C 469.66,638.676 470.827,637.343 472.5,636.5 Z"/></g>
<g><path style="opacity:1" fill="#f4d5d4" d="M 627.5,650.5 C 624.426,650.127 621.426,649.461 618.5,648.5C 613.905,646.142 608.905,644.975 603.5,645C 597.418,644.212 591.418,644.379 585.5,645.5C 585.414,644.504 585.748,643.671 586.5,643C 601.212,640.782 614.879,643.282 627.5,650.5 Z"/></g>
<g><path style="opacity:1" fill="#d9706f" d="M 618.5,648.5 C 608.291,646.113 597.958,645.28 587.5,646C 586.522,652.41 586.189,658.91 586.5,665.5C 586.167,665.5 585.833,665.5 585.5,665.5C 585.5,658.833 585.5,652.167 585.5,645.5C 591.418,644.379 597.418,644.212 603.5,645C 608.905,644.975 613.905,646.142 618.5,648.5 Z"/></g>
<g><path style="opacity:1" fill="#f3cfcf" d="M 477.5,629.5 C 475.517,635.089 473.684,640.756 472,646.5C 471.562,656.601 472.395,666.601 474.5,676.5C 473.833,675.833 473.167,675.167 472.5,674.5C 471.809,669.74 470.809,665.074 469.5,660.5C 468.914,652.267 469.914,644.267 472.5,636.5C 473.924,633.982 475.591,631.649 477.5,629.5 Z"/></g>
<g><path style="opacity:1" fill="#edb6b6" d="M 627.5,650.5 C 632.879,651.899 636.545,655.233 638.5,660.5C 634.808,657.138 631.141,653.805 627.5,650.5 Z"/></g>
<g><path style="opacity:0.243" fill="#e8a7a6" d="M 638.5,660.5 C 639.289,660.783 639.956,661.283 640.5,662C 644.833,662.333 649.167,662.667 653.5,663C 654.416,663.278 655.082,663.778 655.5,664.5C 654.791,665.404 653.791,665.737 652.5,665.5C 650.5,665.5 648.5,665.5 646.5,665.5C 642.2,666.201 639.534,664.534 638.5,660.5 Z"/></g>
<g><path style="opacity:0.363" fill="#f5d8d8" d="M 655.5,664.5 C 662.796,666.486 668.796,670.486 673.5,676.5C 673.376,677.107 673.043,677.44 672.5,677.5C 666.07,673.063 659.403,669.063 652.5,665.5C 653.791,665.737 654.791,665.404 655.5,664.5 Z"/></g>
<g><path style="opacity:1" fill="#d14f4c" d="M 585.5,665.5 C 585.833,665.5 586.167,665.5 586.5,665.5C 586.771,670.913 586.271,676.246 585,681.5C 582.547,685.061 580.381,688.728 578.5,692.5C 579.155,688.188 580.655,684.188 583,680.5C 583.427,675.412 584.26,670.412 585.5,665.5 Z"/></g>
<g><path style="opacity:1" fill="#d35753" d="M 472.5,674.5 C 473.167,675.167 473.833,675.833 474.5,676.5C 475.606,679.054 476.439,681.721 477,684.5C 480.078,688.397 482.911,692.397 485.5,696.5C 481.874,694.042 478.707,691.042 476,687.5C 474.816,683.144 473.649,678.811 472.5,674.5 Z"/></g>
<g><path style="opacity:1" fill="#f3d0d0" d="M 585.5,645.5 C 585.5,652.167 585.5,658.833 585.5,665.5C 584.26,670.412 583.427,675.412 583,680.5C 580.655,684.188 579.155,688.188 578.5,692.5C 575.893,697.374 572.56,701.708 568.5,705.5C 580.489,687.182 586.156,667.182 585.5,645.5 Z"/></g>
<g><path style="opacity:1" fill="#d86c6b" d="M 485.5,696.5 C 487.833,698.167 489.833,700.167 491.5,702.5C 488.5,701.5 486.5,699.5 485.5,696.5 Z"/></g>
<g><path style="opacity:1" fill="#eaaeae" d="M 567.5,706.5 C 564.372,709.97 560.705,712.636 556.5,714.5C 555.833,714.5 555.167,714.5 554.5,714.5C 558.808,711.873 563.141,709.206 567.5,706.5 Z"/></g>
<g><path style="opacity:1" fill="#e28d8c" d="M 554.5,714.5 C 555.167,714.5 555.833,714.5 556.5,714.5C 554.615,716.311 552.281,717.478 549.5,718C 540.167,718.667 530.833,718.667 521.5,718C 520.263,717.768 519.263,717.268 518.5,716.5C 528.473,717.563 538.473,717.729 548.5,717C 550.723,716.434 552.723,715.6 554.5,714.5 Z"/></g>
<g><path style="opacity:0.451" fill="#f9eaea" d="M 746.5,778.5 C 733.745,757.996 721.745,736.996 710.5,715.5C 711.696,713.019 713.196,713.019 715,715.5C 726.453,736.909 738.286,758.076 750.5,779C 749.072,779.579 747.738,779.412 746.5,778.5 Z"/></g>
<g><path style="opacity:0.981" fill="#fefffe" d="M 135.5,830.5 C 149.5,830.5 163.5,830.5 177.5,830.5C 177.5,883.167 177.5,935.833 177.5,988.5C 163.5,988.5 149.5,988.5 135.5,988.5C 135.5,935.833 135.5,883.167 135.5,830.5 Z"/></g>
<g><path style="opacity:0.975" fill="#fefffe" d="M 192.5,830.5 C 204.414,830.179 216.247,830.512 228,831.5C 235,853.167 242,874.833 249,896.5C 249.5,874.503 249.667,852.503 249.5,830.5C 261.5,830.5 273.5,830.5 285.5,830.5C 285.5,883.167 285.5,935.833 285.5,988.5C 272.833,988.5 260.167,988.5 247.5,988.5C 241.108,966.156 234.608,943.822 228,921.5C 227.5,943.831 227.333,966.164 227.5,988.5C 215.833,988.5 204.167,988.5 192.5,988.5C 192.5,935.833 192.5,883.167 192.5,830.5 Z"/></g>
<g><path style="opacity:0.978" fill="#fefffe" d="M 290.5,830.5 C 305.5,830.5 320.5,830.5 335.5,830.5C 339.062,863.455 342.229,896.455 345,929.5C 348.195,896.523 351.362,863.523 354.5,830.5C 369.167,830.5 383.833,830.5 398.5,830.5C 391.996,882.865 385.162,935.198 378,987.5C 356.909,988.494 335.742,988.827 314.5,988.5C 306.715,935.789 298.715,883.123 290.5,830.5 Z"/></g>
<g><path style="opacity:0.982" fill="#fefffe" d="M 405.5,830.5 C 428.5,830.5 451.5,830.5 474.5,830.5C 474.5,841.5 474.5,852.5 474.5,863.5C 465.5,863.5 456.5,863.5 447.5,863.5C 447.5,873.167 447.5,882.833 447.5,892.5C 456.167,892.5 464.833,892.5 473.5,892.5C 473.5,902.833 473.5,913.167 473.5,923.5C 464.833,923.5 456.167,923.5 447.5,923.5C 447.5,934.5 447.5,945.5 447.5,956.5C 457.5,956.5 467.5,956.5 477.5,956.5C 477.5,967.167 477.5,977.833 477.5,988.5C 453.5,988.5 429.5,988.5 405.5,988.5C 405.5,935.833 405.5,883.167 405.5,830.5 Z"/></g>
<g><path style="opacity:0.979" fill="#fefffe" d="M 488.5,830.5 C 511.198,830.089 533.865,830.589 556.5,832C 570.728,835.582 578.561,844.749 580,859.5C 580.883,870.883 580.55,882.217 579,893.5C 576.221,901.151 570.721,905.317 562.5,906C 566.257,907.81 569.924,909.81 573.5,912C 576.567,915.297 578.733,919.131 580,923.5C 580.5,945.164 580.667,966.831 580.5,988.5C 567.5,988.5 554.5,988.5 541.5,988.5C 541.667,967.164 541.5,945.831 541,924.5C 539.309,919.565 535.809,917.565 530.5,918.5C 530.5,941.833 530.5,965.167 530.5,988.5C 516.5,988.5 502.5,988.5 488.5,988.5C 488.5,935.833 488.5,883.167 488.5,830.5 Z M 530.5,858.5 C 534.192,857.971 537.358,858.971 540,861.5C 541.107,865.888 541.607,870.388 541.5,875C 541.577,879.917 541.077,884.75 540,889.5C 537.096,891.227 533.93,891.893 530.5,891.5C 530.5,880.5 530.5,869.5 530.5,858.5 Z"/></g>
<g><path style="opacity:0.978" fill="#fefffe" d="M 589.5,830.5 C 619.833,830.5 650.167,830.5 680.5,830.5C 680.5,841.5 680.5,852.5 680.5,863.5C 672.167,863.5 663.833,863.5 655.5,863.5C 655.5,905.167 655.5,946.833 655.5,988.5C 641.5,988.5 627.5,988.5 613.5,988.5C 613.5,946.833 613.5,905.167 613.5,863.5C 605.5,863.5 597.5,863.5 589.5,863.5C 589.5,852.5 589.5,841.5 589.5,830.5 Z"/></g>
<g><path style="opacity:0.959" fill="#c42322" d="M 734.5,881.5 C 734.5,882.167 734.5,882.833 734.5,883.5C 734.5,889.167 734.5,894.833 734.5,900.5C 728.167,900.5 721.833,900.5 715.5,900.5C 715.5,906.833 715.5,913.167 715.5,919.5C 721.167,919.5 726.833,919.5 732.5,919.5C 732.5,926.833 732.5,934.167 732.5,941.5C 726.833,941.5 721.167,941.5 715.5,941.5C 715.5,956.5 715.5,971.5 715.5,986.5C 705.5,986.5 695.5,986.5 685.5,986.5C 685.5,950.167 685.5,913.833 685.5,877.5C 701.833,877.5 718.167,877.5 734.5,877.5C 734.5,878.833 734.5,880.167 734.5,881.5 Z"/></g>
<g><path style="opacity:0.967" fill="#c52323" d="M 778.5,878.5 C 780.619,893.163 782.785,907.83 785,922.5C 787.407,908.908 789.241,895.242 790.5,881.5C 791.434,880.432 791.768,879.099 791.5,877.5C 796.5,877.5 801.5,877.5 806.5,877.5C 814.167,877.5 821.833,877.5 829.5,877.5C 829.5,913.833 829.5,950.167 829.5,986.5C 820.833,986.5 812.167,986.5 803.5,986.5C 803.667,966.831 803.5,947.164 803,927.5C 799.602,947.001 796.769,966.667 794.5,986.5C 788.167,986.5 781.833,986.5 775.5,986.5C 772.914,964.81 770.08,943.143 767,921.5C 766.5,943.164 766.333,964.831 766.5,986.5C 757.833,986.5 749.167,986.5 740.5,986.5C 740.5,951.833 740.5,917.167 740.5,882.5C 740.5,880.833 740.5,879.167 740.5,877.5C 753.246,877.187 765.913,877.52 778.5,878.5 Z M 778.5,878.5 C 782.761,878.898 786.761,879.898 790.5,881.5C 789.241,895.242 787.407,908.908 785,922.5C 782.785,907.83 780.619,893.163 778.5,878.5 Z"/></g>
</svg>